<svg xmlns="http://www.w3.org/2000/svg" xmlns:xlink="http://www.w3.org/1999/xlink" width="500" zoomAndPan="magnify" viewBox="0 0 375 374.999991" height="500" preserveAspectRatio="xMidYMid meet" version="1.0"><defs><g/><clipPath id="eef5c624be"><path d="M 134.902344 106.804688 L 239.902344 106.804688 L 239.902344 211.804688 L 134.902344 211.804688 Z M 134.902344 106.804688 " clip-rule="nonzero"/></clipPath></defs><rect x="-37.5" width="450" fill="#ffffff" y="-37.499999" height="449.999989" fill-opacity="1"/><rect x="-37.5" width="450" fill="#ffffff" y="-37.499999" height="449.999989" fill-opacity="1"/><path fill="#145da0" d="M 198.894531 134.414062 L 198.894531 184.199219 L 211.875 171.222656 L 211.875 114.761719 L 198.894531 114.761719 L 198.894531 134.414062 " fill-opacity="1" fill-rule="nonzero"/><path fill="#3193e2" d="M 180.917969 189.199219 L 187.40625 195.6875 L 193.898438 189.199219 L 193.898438 136.507812 L 180.917969 136.507812 L 180.917969 189.199219 " fill-opacity="1" fill-rule="nonzero"/><g clip-path="url(#eef5c624be)"><path fill="#051d40" d="M 214.503906 133.902344 L 214.503906 146.304688 L 227.507812 159.308594 L 187.40625 199.40625 L 147.308594 159.308594 L 187.40625 119.207031 L 196.265625 128.0625 L 196.265625 115.664062 L 187.40625 106.804688 L 134.90625 159.308594 L 187.40625 211.808594 L 239.910156 159.308594 L 214.503906 133.902344 " fill-opacity="1" fill-rule="nonzero"/></g><path fill="#b1d4e0" d="M 175.921875 184.199219 L 175.921875 151.589844 L 162.941406 151.589844 L 162.941406 171.222656 L 175.921875 184.199219 " fill-opacity="1" fill-rule="nonzero"/><g fill="#000000" fill-opacity="1"><g transform="translate(55.922997, 244.571425)"><g><path d="M 19.0625 0 L 12.171875 0 L 12.171875 -0.515625 C 12.910156 -0.515625 13.414062 -0.59375 13.6875 -0.75 C 13.9375 -0.875 14.0625 -1.09375 14.0625 -1.40625 C 14.0625 -1.832031 13.890625 -2.441406 13.546875 -3.234375 L 12.453125 -5.828125 L 5.375 -5.828125 L 4.125 -2.671875 C 3.988281 -2.296875 3.921875 -1.945312 3.921875 -1.625 C 3.921875 -0.882812 4.53125 -0.515625 5.75 -0.515625 L 5.75 0 L 0.40625 0 L 0.40625 -0.515625 C 1.050781 -0.546875 1.550781 -0.800781 1.90625 -1.28125 C 2.269531 -1.757812 2.882812 -2.976562 3.75 -4.9375 L 9.375 -18.203125 L 9.90625 -18.203125 L 16.625 -2.859375 C 17.09375 -1.847656 17.460938 -1.210938 17.734375 -0.953125 C 18.003906 -0.691406 18.445312 -0.546875 19.0625 -0.515625 Z M 12.0625 -6.9375 L 8.9375 -14.359375 L 5.828125 -6.9375 Z M 12.0625 -6.9375 "/></g></g></g><g fill="#000000" fill-opacity="1"><g transform="translate(75.408484, 244.571425)"><g><path d="M 13.25 -4.53125 C 13.25 -3.144531 12.722656 -1.976562 11.671875 -1.03125 C 10.617188 -0.09375 9.3125 0.375 7.75 0.375 C 6.664062 0.375 5.601562 0.164062 4.5625 -0.25 C 4.019531 -0.445312 3.597656 -0.546875 3.296875 -0.546875 C 3.097656 -0.546875 2.925781 -0.457031 2.78125 -0.28125 C 2.632812 -0.113281 2.550781 0.09375 2.53125 0.34375 L 1.9375 0.34375 L 1.140625 -5.375 L 1.75 -5.375 C 2.4375 -3.71875 3.21875 -2.503906 4.09375 -1.734375 C 4.96875 -0.972656 6.003906 -0.59375 7.203125 -0.59375 C 8.191406 -0.59375 8.992188 -0.867188 9.609375 -1.421875 C 10.222656 -1.984375 10.53125 -2.71875 10.53125 -3.625 C 10.53125 -4.28125 10.40625 -4.8125 10.15625 -5.21875 C 9.488281 -6.21875 8.144531 -7.269531 6.125 -8.375 C 4.613281 -9.164062 3.535156 -9.960938 2.890625 -10.765625 C 2.242188 -11.578125 1.921875 -12.523438 1.921875 -13.609375 C 1.921875 -15.085938 2.441406 -16.257812 3.484375 -17.125 C 4.421875 -17.875 5.4375 -18.25 6.53125 -18.25 C 7.4375 -18.25 8.410156 -18.050781 9.453125 -17.65625 C 9.929688 -17.4375 10.328125 -17.328125 10.640625 -17.328125 C 11.109375 -17.328125 11.394531 -17.632812 11.5 -18.25 L 12.0625 -18.25 L 12.65625 -12.5 L 11.984375 -12.5 C 11.628906 -13.851562 11.082031 -14.90625 10.34375 -15.65625 C 9.382812 -16.644531 8.285156 -17.140625 7.046875 -17.140625 C 6.203125 -17.140625 5.519531 -16.910156 5 -16.453125 C 4.488281 -15.992188 4.234375 -15.394531 4.234375 -14.65625 C 4.234375 -13.914062 4.539062 -13.222656 5.15625 -12.578125 C 5.769531 -11.929688 6.785156 -11.222656 8.203125 -10.453125 C 9.984375 -9.472656 11.269531 -8.519531 12.0625 -7.59375 C 12.851562 -6.664062 13.25 -5.644531 13.25 -4.53125 Z M 13.25 -4.53125 "/></g></g></g><g fill="#000000" fill-opacity="1"><g transform="translate(90.41393, 244.571425)"><g><path d="M 13.25 -4.53125 C 13.25 -3.144531 12.722656 -1.976562 11.671875 -1.03125 C 10.617188 -0.09375 9.3125 0.375 7.75 0.375 C 6.664062 0.375 5.601562 0.164062 4.5625 -0.25 C 4.019531 -0.445312 3.597656 -0.546875 3.296875 -0.546875 C 3.097656 -0.546875 2.925781 -0.457031 2.78125 -0.28125 C 2.632812 -0.113281 2.550781 0.09375 2.53125 0.34375 L 1.9375 0.34375 L 1.140625 -5.375 L 1.75 -5.375 C 2.4375 -3.71875 3.21875 -2.503906 4.09375 -1.734375 C 4.96875 -0.972656 6.003906 -0.59375 7.203125 -0.59375 C 8.191406 -0.59375 8.992188 -0.867188 9.609375 -1.421875 C 10.222656 -1.984375 10.53125 -2.71875 10.53125 -3.625 C 10.53125 -4.28125 10.40625 -4.8125 10.15625 -5.21875 C 9.488281 -6.21875 8.144531 -7.269531 6.125 -8.375 C 4.613281 -9.164062 3.535156 -9.960938 2.890625 -10.765625 C 2.242188 -11.578125 1.921875 -12.523438 1.921875 -13.609375 C 1.921875 -15.085938 2.441406 -16.257812 3.484375 -17.125 C 4.421875 -17.875 5.4375 -18.25 6.53125 -18.25 C 7.4375 -18.25 8.410156 -18.050781 9.453125 -17.65625 C 9.929688 -17.4375 10.328125 -17.328125 10.640625 -17.328125 C 11.109375 -17.328125 11.394531 -17.632812 11.5 -18.25 L 12.0625 -18.25 L 12.65625 -12.5 L 11.984375 -12.5 C 11.628906 -13.851562 11.082031 -14.90625 10.34375 -15.65625 C 9.382812 -16.644531 8.285156 -17.140625 7.046875 -17.140625 C 6.203125 -17.140625 5.519531 -16.910156 5 -16.453125 C 4.488281 -15.992188 4.234375 -15.394531 4.234375 -14.65625 C 4.234375 -13.914062 4.539062 -13.222656 5.15625 -12.578125 C 5.769531 -11.929688 6.785156 -11.222656 8.203125 -10.453125 C 9.984375 -9.472656 11.269531 -8.519531 12.0625 -7.59375 C 12.851562 -6.664062 13.25 -5.644531 13.25 -4.53125 Z M 13.25 -4.53125 "/></g></g></g><g fill="#000000" fill-opacity="1"><g transform="translate(105.419377, 244.571425)"><g><path d="M 19.03125 -17.359375 C 17.914062 -17.210938 17.210938 -16.941406 16.921875 -16.546875 C 16.640625 -16.148438 16.5 -15.269531 16.5 -13.90625 L 16.5 -6.859375 C 16.5 -4.929688 16.203125 -3.445312 15.609375 -2.40625 C 14.546875 -0.550781 12.535156 0.375 9.578125 0.375 C 7.273438 0.375 5.570312 -0.1875 4.46875 -1.3125 C 3.363281 -2.4375 2.8125 -4.164062 2.8125 -6.5 L 2.8125 -14.9375 C 2.8125 -15.925781 2.671875 -16.550781 2.390625 -16.8125 C 2.109375 -17.082031 1.4375 -17.265625 0.375 -17.359375 L 0.375 -17.875 L 8.015625 -17.875 L 8.015625 -17.359375 C 6.941406 -17.265625 6.265625 -17.078125 5.984375 -16.796875 C 5.703125 -16.523438 5.5625 -15.90625 5.5625 -14.9375 L 5.5625 -6.296875 C 5.5625 -4.710938 5.785156 -3.523438 6.234375 -2.734375 C 6.972656 -1.453125 8.296875 -0.8125 10.203125 -0.8125 C 11.210938 -0.8125 12.117188 -1.003906 12.921875 -1.390625 C 13.734375 -1.773438 14.320312 -2.289062 14.6875 -2.9375 C 15.101562 -3.71875 15.3125 -4.941406 15.3125 -6.609375 L 15.3125 -13.90625 C 15.3125 -15.257812 15.148438 -16.15625 14.828125 -16.59375 C 14.503906 -17.03125 13.816406 -17.285156 12.765625 -17.359375 L 12.765625 -17.875 L 19.03125 -17.875 Z M 19.03125 -17.359375 "/></g></g></g><g fill="#000000" fill-opacity="1"><g transform="translate(124.904864, 244.571425)"><g><path d="M 17.796875 0 L 13.453125 0 L 7.015625 -8.3125 L 5.515625 -8.265625 L 5.515625 -2.9375 C 5.515625 -1.96875 5.65625 -1.335938 5.9375 -1.046875 C 6.226562 -0.765625 6.894531 -0.585938 7.9375 -0.515625 L 7.9375 0 L 0.453125 0 L 0.453125 -0.515625 C 1.460938 -0.585938 2.097656 -0.78125 2.359375 -1.09375 C 2.617188 -1.40625 2.75 -2.117188 2.75 -3.234375 L 2.75 -14.9375 C 2.75 -15.882812 2.617188 -16.5 2.359375 -16.78125 C 2.097656 -17.0625 1.460938 -17.253906 0.453125 -17.359375 L 0.453125 -17.875 L 7.90625 -17.875 C 9.164062 -17.875 10.316406 -17.710938 11.359375 -17.390625 C 12.410156 -17.066406 13.195312 -16.625 13.71875 -16.0625 C 14.414062 -15.269531 14.765625 -14.289062 14.765625 -13.125 C 14.765625 -11.789062 14.304688 -10.753906 13.390625 -10.015625 C 12.617188 -9.390625 11.445312 -8.921875 9.875 -8.609375 L 15.4375 -1.78125 C 15.820312 -1.332031 16.179688 -1.015625 16.515625 -0.828125 C 16.847656 -0.648438 17.273438 -0.546875 17.796875 -0.515625 Z M 11.828125 -13.171875 C 11.828125 -14.429688 11.425781 -15.363281 10.625 -15.96875 C 9.820312 -16.570312 8.578125 -16.875 6.890625 -16.875 C 6.347656 -16.875 5.984375 -16.804688 5.796875 -16.671875 C 5.609375 -16.535156 5.515625 -16.28125 5.515625 -15.90625 L 5.515625 -9.265625 C 6.828125 -9.296875 7.796875 -9.367188 8.421875 -9.484375 C 9.054688 -9.609375 9.675781 -9.835938 10.28125 -10.171875 C 11.3125 -10.710938 11.828125 -11.710938 11.828125 -13.171875 Z M 11.828125 -13.171875 "/></g></g></g><g fill="#000000" fill-opacity="1"><g transform="translate(142.905997, 244.571425)"><g><path d="M 19.0625 0 L 12.171875 0 L 12.171875 -0.515625 C 12.910156 -0.515625 13.414062 -0.59375 13.6875 -0.75 C 13.9375 -0.875 14.0625 -1.09375 14.0625 -1.40625 C 14.0625 -1.832031 13.890625 -2.441406 13.546875 -3.234375 L 12.453125 -5.828125 L 5.375 -5.828125 L 4.125 -2.671875 C 3.988281 -2.296875 3.921875 -1.945312 3.921875 -1.625 C 3.921875 -0.882812 4.53125 -0.515625 5.75 -0.515625 L 5.75 0 L 0.40625 0 L 0.40625 -0.515625 C 1.050781 -0.546875 1.550781 -0.800781 1.90625 -1.28125 C 2.269531 -1.757812 2.882812 -2.976562 3.75 -4.9375 L 9.375 -18.203125 L 9.90625 -18.203125 L 16.625 -2.859375 C 17.09375 -1.847656 17.460938 -1.210938 17.734375 -0.953125 C 18.003906 -0.691406 18.445312 -0.546875 19.0625 -0.515625 Z M 12.0625 -6.9375 L 8.9375 -14.359375 L 5.828125 -6.9375 Z M 12.0625 -6.9375 "/></g></g></g><g fill="#000000" fill-opacity="1"><g transform="translate(162.391484, 244.571425)"><g><path d="M 19.09375 -17.359375 C 18.226562 -17.265625 17.632812 -17.101562 17.3125 -16.875 C 16.789062 -16.507812 16.53125 -15.519531 16.53125 -13.90625 L 16.53125 0.296875 L 16.0625 0.296875 L 4.125 -14.546875 L 4.125 -3.96875 C 4.125 -2.601562 4.285156 -1.695312 4.609375 -1.25 C 4.941406 -0.8125 5.628906 -0.566406 6.671875 -0.515625 L 6.671875 0 L 0.328125 0 L 0.328125 -0.515625 C 1.441406 -0.585938 2.15625 -0.832031 2.46875 -1.25 C 2.78125 -1.675781 2.9375 -2.582031 2.9375 -3.96875 L 2.9375 -15.875 C 2.40625 -16.507812 1.976562 -16.914062 1.65625 -17.09375 C 1.34375 -17.269531 0.898438 -17.359375 0.328125 -17.359375 L 0.328125 -17.875 L 4.9375 -17.875 L 15.34375 -4.8125 L 15.34375 -13.90625 C 15.34375 -15.5625 15.078125 -16.566406 14.546875 -16.921875 C 14.171875 -17.140625 13.570312 -17.285156 12.75 -17.359375 L 12.75 -17.875 L 19.09375 -17.875 Z M 19.09375 -17.359375 "/></g></g></g><g fill="#000000" fill-opacity="1"><g transform="translate(181.876972, 244.571425)"><g><path d="M 16.015625 -13.28125 L 15.359375 -13.28125 C 15.054688 -14.78125 14.644531 -15.726562 14.125 -16.125 C 13.613281 -16.53125 12.59375 -16.734375 11.0625 -16.734375 L 9.609375 -16.734375 L 9.609375 -2.9375 C 9.609375 -1.945312 9.757812 -1.304688 10.0625 -1.015625 C 10.375 -0.734375 11.085938 -0.566406 12.203125 -0.515625 L 12.203125 0 L 4.3125 0 L 4.3125 -0.515625 C 5.4375 -0.585938 6.140625 -0.769531 6.421875 -1.0625 C 6.710938 -1.363281 6.859375 -2.085938 6.859375 -3.234375 L 6.859375 -16.734375 L 5.40625 -16.734375 C 3.882812 -16.734375 2.867188 -16.523438 2.359375 -16.109375 C 1.847656 -15.703125 1.429688 -14.757812 1.109375 -13.28125 L 0.453125 -13.28125 L 0.625 -17.875 L 15.84375 -17.875 Z M 16.015625 -13.28125 "/></g></g></g><g fill="#000000" fill-opacity="1"><g transform="translate(198.366763, 244.571425)"><g/></g></g><g fill="#000000" fill-opacity="1"><g transform="translate(205.11381, 244.571425)"><g><path d="M 17.09375 -3.046875 C 16.257812 -1.953125 15.203125 -1.109375 13.921875 -0.515625 C 12.648438 0.078125 11.25 0.375 9.71875 0.375 C 7.039062 0.375 4.875 -0.460938 3.21875 -2.140625 C 1.570312 -3.828125 0.75 -6.039062 0.75 -8.78125 C 0.75 -11.925781 1.804688 -14.375 3.921875 -16.125 C 5.640625 -17.539062 7.59375 -18.25 9.78125 -18.25 C 11.101562 -18.25 12.425781 -18.035156 13.75 -17.609375 C 14.175781 -17.441406 14.535156 -17.359375 14.828125 -17.359375 C 15.398438 -17.359375 15.769531 -17.65625 15.9375 -18.25 L 16.5 -18.25 L 16.734375 -12.15625 L 16.125 -12.15625 C 15.863281 -13.03125 15.609375 -13.703125 15.359375 -14.171875 C 15.109375 -14.640625 14.769531 -15.09375 14.34375 -15.53125 C 13.238281 -16.625 11.894531 -17.171875 10.3125 -17.171875 C 8.351562 -17.171875 6.789062 -16.441406 5.625 -14.984375 C 4.46875 -13.523438 3.890625 -11.570312 3.890625 -9.125 C 3.890625 -5.90625 4.71875 -3.609375 6.375 -2.234375 C 7.519531 -1.285156 8.921875 -0.8125 10.578125 -0.8125 C 12.703125 -0.8125 14.710938 -1.71875 16.609375 -3.53125 Z M 17.09375 -3.046875 "/></g></g></g><g fill="#000000" fill-opacity="1"><g transform="translate(223.114942, 244.571425)"><g><path d="M 19.0625 0 L 12.171875 0 L 12.171875 -0.515625 C 12.910156 -0.515625 13.414062 -0.59375 13.6875 -0.75 C 13.9375 -0.875 14.0625 -1.09375 14.0625 -1.40625 C 14.0625 -1.832031 13.890625 -2.441406 13.546875 -3.234375 L 12.453125 -5.828125 L 5.375 -5.828125 L 4.125 -2.671875 C 3.988281 -2.296875 3.921875 -1.945312 3.921875 -1.625 C 3.921875 -0.882812 4.53125 -0.515625 5.75 -0.515625 L 5.75 0 L 0.40625 0 L 0.40625 -0.515625 C 1.050781 -0.546875 1.550781 -0.800781 1.90625 -1.28125 C 2.269531 -1.757812 2.882812 -2.976562 3.75 -4.9375 L 9.375 -18.203125 L 9.90625 -18.203125 L 16.625 -2.859375 C 17.09375 -1.847656 17.460938 -1.210938 17.734375 -0.953125 C 18.003906 -0.691406 18.445312 -0.546875 19.0625 -0.515625 Z M 12.0625 -6.9375 L 8.9375 -14.359375 L 5.828125 -6.9375 Z M 12.0625 -6.9375 "/></g></g></g><g fill="#000000" fill-opacity="1"><g transform="translate(242.600429, 244.571425)"><g><path d="M 14.640625 -12.984375 C 14.640625 -12.085938 14.40625 -11.253906 13.9375 -10.484375 C 13.476562 -9.722656 12.847656 -9.125 12.046875 -8.6875 C 10.941406 -8.082031 9.363281 -7.78125 7.3125 -7.78125 C 6.769531 -7.78125 6.148438 -7.804688 5.453125 -7.859375 L 5.453125 -2.9375 C 5.453125 -1.945312 5.609375 -1.300781 5.921875 -1 C 6.242188 -0.707031 6.929688 -0.546875 7.984375 -0.515625 L 7.984375 0 L 0.4375 0 L 0.4375 -0.515625 C 1.457031 -0.597656 2.085938 -0.785156 2.328125 -1.078125 C 2.578125 -1.378906 2.703125 -2.097656 2.703125 -3.234375 L 2.703125 -14.9375 C 2.703125 -15.90625 2.570312 -16.523438 2.3125 -16.796875 C 2.0625 -17.066406 1.4375 -17.253906 0.4375 -17.359375 L 0.4375 -17.875 L 7.5625 -17.875 C 8.84375 -17.875 10.019531 -17.695312 11.09375 -17.34375 C 12.175781 -17 12.988281 -16.53125 13.53125 -15.9375 C 14.269531 -15.132812 14.640625 -14.148438 14.640625 -12.984375 Z M 11.6875 -12.828125 C 11.6875 -14.210938 11.253906 -15.234375 10.390625 -15.890625 C 9.523438 -16.546875 8.1875 -16.875 6.375 -16.875 C 6.007812 -16.875 5.765625 -16.8125 5.640625 -16.6875 C 5.515625 -16.5625 5.453125 -16.316406 5.453125 -15.953125 L 5.453125 -8.9375 C 6.085938 -8.882812 6.601562 -8.859375 7 -8.859375 C 10.125 -8.859375 11.6875 -10.179688 11.6875 -12.828125 Z M 11.6875 -12.828125 "/></g></g></g><g fill="#000000" fill-opacity="1"><g transform="translate(257.605876, 244.571425)"><g><path d="M 8.5 0 L 0.484375 0 L 0.484375 -0.515625 C 1.617188 -0.546875 2.335938 -0.707031 2.640625 -1 C 2.953125 -1.289062 3.109375 -1.9375 3.109375 -2.9375 L 3.109375 -14.9375 C 3.109375 -15.925781 2.957031 -16.554688 2.65625 -16.828125 C 2.363281 -17.109375 1.640625 -17.285156 0.484375 -17.359375 L 0.484375 -17.875 L 8.5 -17.875 L 8.5 -17.359375 C 7.363281 -17.304688 6.640625 -17.132812 6.328125 -16.84375 C 6.015625 -16.5625 5.859375 -15.925781 5.859375 -14.9375 L 5.859375 -2.9375 C 5.859375 -1.945312 6.019531 -1.300781 6.34375 -1 C 6.664062 -0.707031 7.382812 -0.546875 8.5 -0.515625 Z M 8.5 0 "/></g></g></g><g fill="#000000" fill-opacity="1"><g transform="translate(266.592943, 244.571425)"><g><path d="M 16.015625 -13.28125 L 15.359375 -13.28125 C 15.054688 -14.78125 14.644531 -15.726562 14.125 -16.125 C 13.613281 -16.53125 12.59375 -16.734375 11.0625 -16.734375 L 9.609375 -16.734375 L 9.609375 -2.9375 C 9.609375 -1.945312 9.757812 -1.304688 10.0625 -1.015625 C 10.375 -0.734375 11.085938 -0.566406 12.203125 -0.515625 L 12.203125 0 L 4.3125 0 L 4.3125 -0.515625 C 5.4375 -0.585938 6.140625 -0.769531 6.421875 -1.0625 C 6.710938 -1.363281 6.859375 -2.085938 6.859375 -3.234375 L 6.859375 -16.734375 L 5.40625 -16.734375 C 3.882812 -16.734375 2.867188 -16.523438 2.359375 -16.109375 C 1.847656 -15.703125 1.429688 -14.757812 1.109375 -13.28125 L 0.453125 -13.28125 L 0.625 -17.875 L 15.84375 -17.875 Z M 16.015625 -13.28125 "/></g></g></g><g fill="#000000" fill-opacity="1"><g transform="translate(283.082734, 244.571425)"><g><path d="M 19.0625 0 L 12.171875 0 L 12.171875 -0.515625 C 12.910156 -0.515625 13.414062 -0.59375 13.6875 -0.75 C 13.9375 -0.875 14.0625 -1.09375 14.0625 -1.40625 C 14.0625 -1.832031 13.890625 -2.441406 13.546875 -3.234375 L 12.453125 -5.828125 L 5.375 -5.828125 L 4.125 -2.671875 C 3.988281 -2.296875 3.921875 -1.945312 3.921875 -1.625 C 3.921875 -0.882812 4.53125 -0.515625 5.75 -0.515625 L 5.75 0 L 0.40625 0 L 0.40625 -0.515625 C 1.050781 -0.546875 1.550781 -0.800781 1.90625 -1.28125 C 2.269531 -1.757812 2.882812 -2.976562 3.75 -4.9375 L 9.375 -18.203125 L 9.90625 -18.203125 L 16.625 -2.859375 C 17.09375 -1.847656 17.460938 -1.210938 17.734375 -0.953125 C 18.003906 -0.691406 18.445312 -0.546875 19.0625 -0.515625 Z M 12.0625 -6.9375 L 8.9375 -14.359375 L 5.828125 -6.9375 Z M 12.0625 -6.9375 "/></g></g></g><g fill="#000000" fill-opacity="1"><g transform="translate(302.568222, 244.571425)"><g><path d="M 16.140625 -4.703125 L 14.84375 0 L 0.328125 0 L 0.328125 -0.515625 C 1.316406 -0.585938 1.953125 -0.769531 2.234375 -1.0625 C 2.523438 -1.363281 2.671875 -1.988281 2.671875 -2.9375 L 2.671875 -14.9375 C 2.671875 -15.882812 2.53125 -16.5 2.25 -16.78125 C 1.976562 -17.070312 1.335938 -17.265625 0.328125 -17.359375 L 0.328125 -17.875 L 7.9375 -17.875 L 7.9375 -17.359375 C 6.875 -17.285156 6.1875 -17.097656 5.875 -16.796875 C 5.570312 -16.503906 5.421875 -15.882812 5.421875 -14.9375 L 5.421875 -2.15625 C 5.421875 -1.6875 5.5625 -1.382812 5.84375 -1.25 C 6.125 -1.113281 6.757812 -1.046875 7.75 -1.046875 L 9.5625 -1.046875 C 11.8125 -1.046875 13.394531 -1.597656 14.3125 -2.703125 C 14.65625 -3.097656 15.039062 -3.765625 15.46875 -4.703125 Z M 16.140625 -4.703125 "/></g></g></g><g fill="#000000" fill-opacity="1"><g transform="translate(146.295123, 264.409142)"><g><path d="M 6.578125 0 L 2.46875 0 L 2.46875 -0.421875 C 2.6875 -0.503906 2.90625 -0.570312 3.125 -0.625 C 3.34375 -0.6875 3.578125 -0.738281 3.828125 -0.78125 L 3.828125 -9.484375 L 1.59375 -9.484375 L 0.8125 -7.390625 L 0.453125 -7.390625 C 0.421875 -7.578125 0.394531 -7.796875 0.375 -8.046875 C 0.351562 -8.296875 0.335938 -8.550781 0.328125 -8.8125 C 0.316406 -9.070312 0.304688 -9.320312 0.296875 -9.5625 C 0.285156 -9.8125 0.28125 -10.035156 0.28125 -10.234375 L 8.78125 -10.234375 C 8.78125 -10.035156 8.773438 -9.816406 8.765625 -9.578125 C 8.753906 -9.335938 8.738281 -9.085938 8.71875 -8.828125 C 8.707031 -8.566406 8.691406 -8.3125 8.671875 -8.0625 C 8.660156 -7.8125 8.640625 -7.585938 8.609375 -7.390625 L 8.234375 -7.390625 L 7.46875 -9.484375 L 5.234375 -9.484375 L 5.234375 -0.78125 C 5.484375 -0.726562 5.71875 -0.675781 5.9375 -0.625 C 6.164062 -0.582031 6.378906 -0.515625 6.578125 -0.421875 Z M 6.578125 0 "/></g></g></g><g fill="#000000" fill-opacity="1"><g transform="translate(156.393531, 264.409142)"><g><path d="M 3.5625 -6.21875 C 3.457031 -6.15625 3.320312 -6.035156 3.15625 -5.859375 C 3 -5.679688 2.859375 -5.414062 2.734375 -5.0625 L 2.734375 -0.71875 C 2.929688 -0.695312 3.125 -0.660156 3.3125 -0.609375 C 3.507812 -0.554688 3.707031 -0.472656 3.90625 -0.359375 L 3.90625 0 L 0.453125 0 L 0.453125 -0.359375 C 0.628906 -0.460938 0.796875 -0.535156 0.953125 -0.578125 C 1.109375 -0.628906 1.265625 -0.675781 1.421875 -0.71875 L 1.421875 -6.46875 L 0.453125 -6.578125 L 0.453125 -6.96875 C 0.765625 -7.101562 1.085938 -7.210938 1.421875 -7.296875 C 1.753906 -7.378906 2.070312 -7.441406 2.375 -7.484375 L 2.734375 -7.484375 L 2.734375 -5.9375 L 2.796875 -5.9375 C 2.878906 -6.132812 3 -6.328125 3.15625 -6.515625 C 3.320312 -6.710938 3.507812 -6.890625 3.71875 -7.046875 C 3.925781 -7.203125 4.15625 -7.320312 4.40625 -7.40625 C 4.65625 -7.488281 4.910156 -7.515625 5.171875 -7.484375 C 5.242188 -7.359375 5.304688 -7.21875 5.359375 -7.0625 C 5.410156 -6.914062 5.460938 -6.757812 5.515625 -6.59375 L 5.515625 -6.21875 Z M 3.5625 -6.21875 "/></g></g></g><g fill="#000000" fill-opacity="1"><g transform="translate(163.057831, 264.409142)"><g><path d="M 1.125 -2.890625 C 1.125 -3.503906 1.140625 -4.109375 1.171875 -4.703125 C 1.203125 -5.296875 1.21875 -5.882812 1.21875 -6.46875 L 0.25 -6.578125 L 0.25 -6.96875 C 0.5625 -7.082031 0.878906 -7.179688 1.203125 -7.265625 C 1.535156 -7.359375 1.859375 -7.429688 2.171875 -7.484375 L 2.53125 -7.484375 C 2.53125 -6.753906 2.515625 -6.03125 2.484375 -5.3125 C 2.453125 -4.59375 2.4375 -3.875 2.4375 -3.15625 C 2.4375 -2.78125 2.457031 -2.441406 2.5 -2.140625 C 2.550781 -1.835938 2.628906 -1.582031 2.734375 -1.375 C 2.847656 -1.164062 3.003906 -1.003906 3.203125 -0.890625 C 3.398438 -0.785156 3.648438 -0.734375 3.953125 -0.734375 C 4.390625 -0.734375 4.753906 -0.890625 5.046875 -1.203125 C 5.347656 -1.523438 5.582031 -1.9375 5.75 -2.4375 L 5.75 -6.46875 L 4.796875 -6.578125 L 4.796875 -6.96875 C 5.097656 -7.082031 5.410156 -7.179688 5.734375 -7.265625 C 6.066406 -7.359375 6.390625 -7.429688 6.703125 -7.484375 L 7.0625 -7.484375 L 7.0625 -0.828125 L 8.03125 -0.71875 L 8.03125 -0.40625 C 7.75 -0.28125 7.460938 -0.164062 7.171875 -0.0625 C 6.878906 0.03125 6.582031 0.0976562 6.28125 0.140625 L 5.90625 0.140625 L 5.8125 -1.59375 L 5.75 -1.59375 C 5.695312 -1.382812 5.609375 -1.175781 5.484375 -0.96875 C 5.367188 -0.757812 5.210938 -0.566406 5.015625 -0.390625 C 4.816406 -0.222656 4.59375 -0.0859375 4.34375 0.015625 C 4.101562 0.117188 3.835938 0.171875 3.546875 0.171875 C 3.148438 0.171875 2.800781 0.125 2.5 0.03125 C 2.207031 -0.0625 1.957031 -0.222656 1.75 -0.453125 C 1.550781 -0.679688 1.394531 -0.992188 1.28125 -1.390625 C 1.175781 -1.785156 1.125 -2.285156 1.125 -2.890625 Z M 1.125 -2.890625 "/></g></g></g><g fill="#000000" fill-opacity="1"><g transform="translate(172.498638, 264.409142)"><g><path d="M 4.3125 -1.671875 C 4.3125 -1.941406 4.222656 -2.171875 4.046875 -2.359375 C 3.878906 -2.546875 3.664062 -2.722656 3.40625 -2.890625 C 3.144531 -3.054688 2.863281 -3.21875 2.5625 -3.375 C 2.269531 -3.53125 1.988281 -3.710938 1.71875 -3.921875 C 1.457031 -4.128906 1.238281 -4.367188 1.0625 -4.640625 C 0.894531 -4.921875 0.8125 -5.257812 0.8125 -5.65625 C 0.8125 -5.925781 0.875 -6.171875 1 -6.390625 C 1.125 -6.617188 1.285156 -6.8125 1.484375 -6.96875 C 1.691406 -7.125 1.929688 -7.25 2.203125 -7.34375 C 2.484375 -7.4375 2.773438 -7.484375 3.078125 -7.484375 C 3.609375 -7.484375 4.039062 -7.453125 4.375 -7.390625 C 4.71875 -7.335938 5.046875 -7.257812 5.359375 -7.15625 C 5.316406 -6.84375 5.269531 -6.523438 5.21875 -6.203125 C 5.164062 -5.890625 5.085938 -5.566406 4.984375 -5.234375 L 4.625 -5.234375 L 4.0625 -6.734375 C 3.945312 -6.773438 3.816406 -6.800781 3.671875 -6.8125 C 3.523438 -6.832031 3.375 -6.84375 3.21875 -6.84375 C 3.039062 -6.84375 2.882812 -6.8125 2.75 -6.75 C 2.625 -6.6875 2.515625 -6.601562 2.421875 -6.5 C 2.328125 -6.40625 2.253906 -6.296875 2.203125 -6.171875 C 2.160156 -6.046875 2.140625 -5.921875 2.140625 -5.796875 C 2.140625 -5.523438 2.222656 -5.296875 2.390625 -5.109375 C 2.554688 -4.921875 2.769531 -4.742188 3.03125 -4.578125 C 3.300781 -4.421875 3.582031 -4.265625 3.875 -4.109375 C 4.175781 -3.953125 4.457031 -3.773438 4.71875 -3.578125 C 4.988281 -3.390625 5.207031 -3.164062 5.375 -2.90625 C 5.539062 -2.644531 5.625 -2.332031 5.625 -1.96875 C 5.625 -1.644531 5.550781 -1.347656 5.40625 -1.078125 C 5.269531 -0.816406 5.078125 -0.59375 4.828125 -0.40625 C 4.578125 -0.21875 4.289062 -0.078125 3.96875 0.015625 C 3.644531 0.117188 3.296875 0.171875 2.921875 0.171875 C 2.503906 0.171875 2.117188 0.132812 1.765625 0.0625 C 1.421875 -0.0078125 1.054688 -0.113281 0.671875 -0.25 C 0.691406 -0.601562 0.734375 -0.941406 0.796875 -1.265625 C 0.867188 -1.585938 0.957031 -1.898438 1.0625 -2.203125 L 1.4375 -2.203125 L 2.078125 -0.609375 C 2.179688 -0.535156 2.304688 -0.492188 2.453125 -0.484375 C 2.609375 -0.472656 2.75 -0.46875 2.875 -0.46875 C 3.3125 -0.46875 3.660156 -0.582031 3.921875 -0.8125 C 4.179688 -1.050781 4.3125 -1.335938 4.3125 -1.671875 Z M 4.3125 -1.671875 "/></g></g></g><g fill="#000000" fill-opacity="1"><g transform="translate(179.878984, 264.409142)"><g><path d="M 0.21875 -6.96875 C 0.59375 -7.195312 0.984375 -7.359375 1.390625 -7.453125 L 1.390625 -8.703125 C 1.515625 -8.804688 1.660156 -8.898438 1.828125 -8.984375 C 2.003906 -9.066406 2.175781 -9.148438 2.34375 -9.234375 L 2.703125 -9.234375 L 2.703125 -7.3125 L 4.90625 -7.3125 L 4.90625 -6.578125 L 2.703125 -6.578125 L 2.703125 -2.34375 C 2.703125 -1.757812 2.796875 -1.34375 2.984375 -1.09375 C 3.171875 -0.851562 3.445312 -0.734375 3.8125 -0.734375 C 3.988281 -0.734375 4.207031 -0.742188 4.46875 -0.765625 C 4.738281 -0.785156 4.960938 -0.832031 5.140625 -0.90625 L 5.25 -0.6875 C 5.175781 -0.601562 5.066406 -0.507812 4.921875 -0.40625 C 4.773438 -0.3125 4.613281 -0.21875 4.4375 -0.125 C 4.257812 -0.0390625 4.0625 0.0234375 3.84375 0.078125 C 3.632812 0.140625 3.414062 0.171875 3.1875 0.171875 C 2.601562 0.171875 2.15625 0.0078125 1.84375 -0.3125 C 1.539062 -0.644531 1.390625 -1.1875 1.390625 -1.9375 L 1.390625 -6.578125 L 0.21875 -6.578125 Z M 0.21875 -6.96875 "/></g></g></g><g fill="#000000" fill-opacity="1"><g transform="translate(186.353313, 264.409142)"><g/></g></g><g fill="#000000" fill-opacity="1"><g transform="translate(190.95715, 264.409142)"><g><path d="M 4.453125 0 L 0.703125 0 L 0.703125 -0.421875 C 1.078125 -0.597656 1.46875 -0.71875 1.875 -0.78125 L 1.875 -9.453125 C 1.675781 -9.484375 1.476562 -9.53125 1.28125 -9.59375 C 1.09375 -9.664062 0.898438 -9.738281 0.703125 -9.8125 L 0.703125 -10.234375 L 4.453125 -10.234375 L 4.453125 -9.8125 C 4.273438 -9.738281 4.082031 -9.664062 3.875 -9.59375 C 3.664062 -9.53125 3.46875 -9.484375 3.28125 -9.453125 L 3.28125 -0.78125 C 3.476562 -0.738281 3.679688 -0.6875 3.890625 -0.625 C 4.097656 -0.570312 4.285156 -0.503906 4.453125 -0.421875 Z M 4.453125 0 "/></g></g></g><g fill="#000000" fill-opacity="1"><g transform="translate(197.153831, 264.409142)"><g><path d="M 8.4375 0 L 5.296875 0 L 5.296875 -0.359375 C 5.554688 -0.503906 5.84375 -0.625 6.15625 -0.71875 L 6.15625 -4.1875 C 6.15625 -4.925781 6.046875 -5.507812 5.828125 -5.9375 C 5.617188 -6.363281 5.234375 -6.578125 4.671875 -6.578125 C 4.421875 -6.578125 4.191406 -6.53125 3.984375 -6.4375 C 3.773438 -6.351562 3.585938 -6.234375 3.421875 -6.078125 C 3.265625 -5.929688 3.128906 -5.765625 3.015625 -5.578125 C 2.898438 -5.390625 2.804688 -5.191406 2.734375 -4.984375 L 2.734375 -0.71875 C 3.035156 -0.65625 3.328125 -0.535156 3.609375 -0.359375 L 3.609375 0 L 0.453125 0 L 0.453125 -0.359375 C 0.691406 -0.492188 1.015625 -0.613281 1.421875 -0.71875 L 1.421875 -6.46875 L 0.453125 -6.578125 L 0.453125 -6.96875 C 0.703125 -7.070312 0.992188 -7.164062 1.328125 -7.25 C 1.660156 -7.34375 2.007812 -7.421875 2.375 -7.484375 L 2.734375 -7.484375 L 2.734375 -5.84375 L 2.75 -5.84375 C 2.957031 -6.289062 3.253906 -6.675781 3.640625 -7 C 4.023438 -7.320312 4.488281 -7.484375 5.03125 -7.484375 C 5.414062 -7.484375 5.757812 -7.4375 6.0625 -7.34375 C 6.375 -7.25 6.632812 -7.085938 6.84375 -6.859375 C 7.050781 -6.628906 7.207031 -6.316406 7.3125 -5.921875 C 7.414062 -5.523438 7.46875 -5.023438 7.46875 -4.421875 L 7.46875 -0.71875 C 7.863281 -0.644531 8.1875 -0.523438 8.4375 -0.359375 Z M 8.4375 0 "/></g></g></g><g fill="#000000" fill-opacity="1"><g transform="translate(206.88691, 264.409142)"><g/></g></g><g fill="#000000" fill-opacity="1"><g transform="translate(211.490748, 264.409142)"><g><path d="M 0.140625 -10.234375 L 3.859375 -10.234375 L 3.859375 -9.8125 C 3.671875 -9.738281 3.484375 -9.671875 3.296875 -9.609375 C 3.117188 -9.546875 2.9375 -9.492188 2.75 -9.453125 L 2.75 -3.46875 C 2.75 -2.945312 2.800781 -2.515625 2.90625 -2.171875 C 3.019531 -1.828125 3.1875 -1.550781 3.40625 -1.34375 C 3.625 -1.132812 3.890625 -0.984375 4.203125 -0.890625 C 4.523438 -0.796875 4.882812 -0.75 5.28125 -0.75 C 6.050781 -0.75 6.648438 -0.957031 7.078125 -1.375 C 7.503906 -1.800781 7.71875 -2.503906 7.71875 -3.484375 L 7.71875 -9.3125 C 7.5 -9.394531 7.289062 -9.476562 7.09375 -9.5625 C 6.894531 -9.644531 6.71875 -9.726562 6.5625 -9.8125 L 6.5625 -10.234375 L 9.6875 -10.234375 L 9.6875 -9.8125 C 9.5 -9.707031 9.304688 -9.609375 9.109375 -9.515625 C 8.921875 -9.429688 8.734375 -9.363281 8.546875 -9.3125 L 8.546875 -3.453125 C 8.546875 -2.828125 8.460938 -2.289062 8.296875 -1.84375 C 8.128906 -1.394531 7.894531 -1.023438 7.59375 -0.734375 C 7.300781 -0.441406 6.941406 -0.222656 6.515625 -0.078125 C 6.085938 0.0546875 5.617188 0.125 5.109375 0.125 C 3.890625 0.125 2.957031 -0.144531 2.3125 -0.6875 C 1.664062 -1.238281 1.34375 -2.085938 1.34375 -3.234375 L 1.34375 -9.453125 C 0.945312 -9.503906 0.546875 -9.625 0.140625 -9.8125 Z M 0.140625 -10.234375 "/></g></g></g><g fill="#000000" fill-opacity="1"><g transform="translate(222.363659, 264.409142)"><g><path d="M 4.3125 -1.671875 C 4.3125 -1.941406 4.222656 -2.171875 4.046875 -2.359375 C 3.878906 -2.546875 3.664062 -2.722656 3.40625 -2.890625 C 3.144531 -3.054688 2.863281 -3.21875 2.5625 -3.375 C 2.269531 -3.53125 1.988281 -3.710938 1.71875 -3.921875 C 1.457031 -4.128906 1.238281 -4.367188 1.0625 -4.640625 C 0.894531 -4.921875 0.8125 -5.257812 0.8125 -5.65625 C 0.8125 -5.925781 0.875 -6.171875 1 -6.390625 C 1.125 -6.617188 1.285156 -6.8125 1.484375 -6.96875 C 1.691406 -7.125 1.929688 -7.25 2.203125 -7.34375 C 2.484375 -7.4375 2.773438 -7.484375 3.078125 -7.484375 C 3.609375 -7.484375 4.039062 -7.453125 4.375 -7.390625 C 4.71875 -7.335938 5.046875 -7.257812 5.359375 -7.15625 C 5.316406 -6.84375 5.269531 -6.523438 5.21875 -6.203125 C 5.164062 -5.890625 5.085938 -5.566406 4.984375 -5.234375 L 4.625 -5.234375 L 4.0625 -6.734375 C 3.945312 -6.773438 3.816406 -6.800781 3.671875 -6.8125 C 3.523438 -6.832031 3.375 -6.84375 3.21875 -6.84375 C 3.039062 -6.84375 2.882812 -6.8125 2.75 -6.75 C 2.625 -6.6875 2.515625 -6.601562 2.421875 -6.5 C 2.328125 -6.40625 2.253906 -6.296875 2.203125 -6.171875 C 2.160156 -6.046875 2.140625 -5.921875 2.140625 -5.796875 C 2.140625 -5.523438 2.222656 -5.296875 2.390625 -5.109375 C 2.554688 -4.921875 2.769531 -4.742188 3.03125 -4.578125 C 3.300781 -4.421875 3.582031 -4.265625 3.875 -4.109375 C 4.175781 -3.953125 4.457031 -3.773438 4.71875 -3.578125 C 4.988281 -3.390625 5.207031 -3.164062 5.375 -2.90625 C 5.539062 -2.644531 5.625 -2.332031 5.625 -1.96875 C 5.625 -1.644531 5.550781 -1.347656 5.40625 -1.078125 C 5.269531 -0.816406 5.078125 -0.59375 4.828125 -0.40625 C 4.578125 -0.21875 4.289062 -0.078125 3.96875 0.015625 C 3.644531 0.117188 3.296875 0.171875 2.921875 0.171875 C 2.503906 0.171875 2.117188 0.132812 1.765625 0.0625 C 1.421875 -0.0078125 1.054688 -0.113281 0.671875 -0.25 C 0.691406 -0.601562 0.734375 -0.941406 0.796875 -1.265625 C 0.867188 -1.585938 0.957031 -1.898438 1.0625 -2.203125 L 1.4375 -2.203125 L 2.078125 -0.609375 C 2.179688 -0.535156 2.304688 -0.492188 2.453125 -0.484375 C 2.609375 -0.472656 2.75 -0.46875 2.875 -0.46875 C 3.3125 -0.46875 3.660156 -0.582031 3.921875 -0.8125 C 4.179688 -1.050781 4.3125 -1.335938 4.3125 -1.671875 Z M 4.3125 -1.671875 "/></g></g></g></svg>