<svg xmlns="http://www.w3.org/2000/svg" xmlns:xlink="http://www.w3.org/1999/xlink" width="500" zoomAndPan="magnify" viewBox="0 0 375 374.999991" height="500" preserveAspectRatio="xMidYMid meet" version="1.0"><defs><g/><clipPath id="23ceff167c"><path d="M 122.25 77 L 252.75 77 L 252.75 226.816406 L 122.25 226.816406 Z M 122.25 77 " clip-rule="nonzero"/></clipPath><clipPath id="d058019fd1"><path d="M 144.226562 117 L 222 117 L 222 181 L 144.226562 181 Z M 144.226562 117 " clip-rule="nonzero"/></clipPath><clipPath id="4180bcc196"><path d="M 220 133 L 230.410156 133 L 230.410156 168.882812 L 220 168.882812 Z M 220 133 " clip-rule="nonzero"/></clipPath><clipPath id="6b143c2c68"><path d="M 144.226562 128 L 216 128 L 216 188 L 144.226562 188 Z M 144.226562 128 " clip-rule="nonzero"/></clipPath><clipPath id="1114505c48"><path d="M 172 189 L 196 189 L 196 202.199219 L 172 202.199219 Z M 172 189 " clip-rule="nonzero"/></clipPath></defs><rect x="-37.5" width="450" fill="#ffffff" y="-37.499999" height="449.999989" fill-opacity="1"/><rect x="-37.5" width="450" fill="#004aad" y="-37.499999" height="449.999989" fill-opacity="1"/><g clip-path="url(#23ceff167c)"><path fill="#ffffff" d="M 187.496094 79.875 L 186.429688 77.214844 L 124.109375 102.222656 C 122.96875 102.679688 122.25 103.804688 122.316406 105.035156 C 122.316406 105.082031 123.1875 121.441406 125.710938 140.117188 C 126.972656 149.460938 128.648438 159.378906 130.855469 168.175781 C 131.960938 172.574219 133.199219 176.695312 134.609375 180.34375 C 136.019531 183.996094 137.582031 187.171875 139.445312 189.722656 C 140.578125 191.269531 142.109375 192.894531 143.957031 194.660156 C 147.1875 197.738281 151.394531 201.203125 155.921875 204.710938 C 162.707031 209.964844 170.191406 215.292969 175.996094 219.3125 C 181.792969 223.335938 185.90625 226.050781 185.917969 226.058594 C 186.878906 226.691406 188.117188 226.691406 189.074219 226.058594 C 189.097656 226.046875 198.632812 219.753906 209.160156 212.117188 C 214.429688 208.296875 219.941406 204.144531 224.664062 200.25 C 227.027344 198.304688 229.1875 196.421875 231.039062 194.660156 C 232.886719 192.894531 234.414062 191.269531 235.550781 189.722656 C 237.410156 187.171875 238.976562 183.996094 240.386719 180.34375 C 242.847656 173.960938 244.804688 166.121094 246.402344 157.894531 C 248.796875 145.5625 250.359375 132.375 251.332031 122.246094 C 252.300781 112.121094 252.675781 105.0625 252.679688 105.035156 C 252.742188 103.804688 252.023438 102.679688 250.882812 102.222656 L 188.566406 77.214844 C 187.886719 76.941406 187.109375 76.941406 186.429688 77.214844 L 187.496094 79.875 L 186.429688 82.535156 L 248.75 107.539062 L 249.816406 104.882812 L 246.957031 104.730469 C 246.957031 104.730469 246.953125 104.789062 246.945312 104.910156 C 246.839844 106.78125 245.878906 123.125 243.367188 141.082031 C 242.113281 150.058594 240.472656 159.4375 238.382812 167.570312 C 237.335938 171.632812 236.179688 175.382812 234.921875 178.59375 C 233.664062 181.804688 232.296875 184.472656 230.925781 186.339844 C 230.132812 187.429688 228.789062 188.890625 227.082031 190.511719 C 224.09375 193.363281 219.996094 196.746094 215.5625 200.179688 C 208.910156 205.335938 201.484375 210.617188 195.738281 214.605469 C 192.859375 216.597656 190.402344 218.269531 188.664062 219.4375 C 187.796875 220.023438 187.109375 220.484375 186.640625 220.800781 C 186.402344 220.957031 186.222656 221.074219 186.101562 221.15625 C 185.980469 221.238281 185.917969 221.277344 185.917969 221.277344 L 187.496094 223.667969 L 189.074219 221.277344 C 189.074219 221.277344 189.042969 221.253906 188.972656 221.207031 C 187.871094 220.480469 178.355469 214.15625 168.21875 206.765625 C 163.152344 203.074219 157.929688 199.113281 153.550781 195.480469 C 151.359375 193.660156 149.382812 191.925781 147.75 190.359375 C 146.121094 188.800781 144.835938 187.394531 144.066406 186.339844 C 142.652344 184.410156 141.238281 181.632812 139.953125 178.28125 C 137.6875 172.417969 135.769531 164.828125 134.214844 156.804688 C 131.875 144.757812 130.324219 131.710938 129.367188 121.699219 C 128.886719 116.695312 128.554688 112.441406 128.339844 109.449219 C 128.234375 107.949219 128.160156 106.765625 128.109375 105.960938 C 128.085938 105.554688 128.066406 105.246094 128.054688 105.039062 C 128.046875 104.933594 128.042969 104.855469 128.039062 104.804688 C 128.039062 104.753906 128.035156 104.730469 128.035156 104.730469 L 125.175781 104.882812 L 126.242188 107.539062 L 188.566406 82.535156 L 187.496094 79.875 L 186.429688 82.535156 L 187.496094 79.875 " fill-opacity="1" fill-rule="nonzero"/></g><path fill="#ffffff" d="M 153.265625 115.484375 C 152.507812 115.484375 151.753906 115.203125 151.164062 114.636719 C 149.972656 113.484375 149.933594 111.570312 151.085938 110.363281 C 151.367188 110.082031 179.617188 81.414062 215 107.863281 C 216.332031 108.863281 216.597656 110.75 215.601562 112.085938 C 214.613281 113.417969 212.71875 113.703125 211.386719 112.699219 C 180.21875 89.394531 156.429688 113.523438 155.429688 114.5625 C 154.839844 115.175781 154.046875 115.484375 153.265625 115.484375 " fill-opacity="1" fill-rule="nonzero"/><path fill="#ffffff" d="M 149.574219 134.441406 C 148.730469 134.441406 147.882812 134.082031 147.28125 133.375 C 146.207031 132.105469 146.347656 130.203125 147.617188 129.113281 C 149.691406 127.34375 151.753906 125.277344 153.929688 123.09375 C 167.164062 109.824219 183.636719 93.324219 220.648438 124.402344 C 221.929688 125.480469 222.09375 127.382812 221.03125 128.664062 C 219.957031 129.933594 218.046875 130.101562 216.777344 129.035156 C 183.996094 101.511719 170.878906 114.652344 158.195312 127.367188 C 155.929688 129.640625 153.789062 131.785156 151.535156 133.707031 C 150.972656 134.195312 150.265625 134.441406 149.574219 134.441406 " fill-opacity="1" fill-rule="nonzero"/><g clip-path="url(#d058019fd1)"><path fill="#ffffff" d="M 218.714844 180.472656 C 217.984375 180.472656 217.253906 180.203125 216.675781 179.675781 C 209.617188 173.15625 210.589844 167.203125 212.949219 152.828125 L 213.5625 149.042969 C 214.230469 144.898438 212.898438 140.703125 209.578125 136.597656 C 203.1875 128.664062 192.015625 123.980469 184.738281 123.609375 C 175.847656 123.171875 170.917969 128.460938 164.011719 135.824219 C 159.976562 140.125 155.417969 145 149.320312 149.363281 C 147.960938 150.339844 146.078125 150.019531 145.117188 148.671875 C 144.144531 147.3125 144.464844 145.425781 145.808594 144.460938 C 151.421875 140.433594 155.597656 135.992188 159.617188 131.695312 C 166.726562 124.121094 173.414062 116.949219 185.058594 117.578125 C 195.308594 118.117188 207.59375 124.519531 214.269531 132.808594 C 218.648438 138.226562 220.457031 144.179688 219.519531 150.007812 L 218.890625 153.804688 C 216.535156 168.203125 216.226562 171.050781 220.761719 175.234375 C 221.980469 176.367188 222.054688 178.265625 220.929688 179.496094 C 220.339844 180.136719 219.53125 180.472656 218.714844 180.472656 " fill-opacity="1" fill-rule="nonzero"/></g><g clip-path="url(#4180bcc196)"><path fill="#ffffff" d="M 225.335938 168.640625 C 225.027344 168.640625 224.722656 168.601562 224.414062 168.5 C 222.824219 168 221.953125 166.304688 222.453125 164.714844 C 227.359375 149.199219 221.417969 138.277344 221.351562 138.175781 C 220.53125 136.722656 221.058594 134.875 222.503906 134.066406 C 223.964844 133.246094 225.796875 133.773438 226.617188 135.222656 C 226.910156 135.761719 233.894531 148.554688 228.207031 166.535156 C 227.796875 167.820312 226.605469 168.640625 225.335938 168.640625 " fill-opacity="1" fill-rule="nonzero"/></g><g clip-path="url(#6b143c2c68)"><path fill="#ffffff" d="M 212.269531 187.519531 C 211.746094 187.519531 211.207031 187.375 210.71875 187.082031 C 196.882812 178.765625 199.664062 169.167969 202.136719 160.695312 C 202.765625 158.554688 203.40625 156.332031 203.777344 154.175781 C 204.480469 150.121094 203.148438 145.425781 200.242188 141.613281 C 197.28125 137.726562 193.15625 135.351562 188.632812 134.925781 C 181.589844 134.273438 176.15625 137.75 165.433594 149.890625 C 159.492188 156.628906 154.496094 160.542969 148.742188 162.992188 C 147.21875 163.648438 145.4375 162.929688 144.796875 161.402344 C 144.144531 159.863281 144.859375 158.089844 146.386719 157.4375 C 151.265625 155.371094 155.609375 151.90625 160.925781 145.886719 C 171.546875 133.847656 178.898438 127.933594 189.199219 128.910156 C 195.421875 129.511719 201.035156 132.707031 205.03125 137.941406 C 208.9375 143.0625 210.695312 149.519531 209.71875 155.191406 C 209.285156 157.707031 208.59375 160.082031 207.925781 162.390625 C 205.53125 170.578125 203.96875 175.980469 213.820312 181.910156 C 215.253906 182.769531 215.714844 184.617188 214.855469 186.042969 C 214.292969 186.992188 213.292969 187.519531 212.269531 187.519531 " fill-opacity="1" fill-rule="nonzero"/></g><path fill="#ffffff" d="M 162.796875 193.820312 C 161.71875 193.820312 160.683594 193.253906 160.132812 192.242188 C 159.351562 190.777344 159.886719 188.941406 161.347656 188.144531 C 172.828125 181.921875 181.859375 174.132812 188.210938 165.007812 C 191.964844 159.605469 193.21875 156.023438 192.527344 152.648438 C 192.257812 151.328125 191.121094 146.964844 187.519531 146.335938 C 185.878906 146.039062 184.277344 147.554688 182.203125 149.683594 C 181.679688 150.238281 181.164062 150.761719 180.667969 151.226562 C 179.898438 151.945312 178.976562 152.804688 177.949219 153.78125 C 171.097656 160.261719 159.644531 171.105469 151.316406 174.683594 C 149.792969 175.339844 148.011719 174.644531 147.359375 173.105469 C 146.691406 171.578125 147.398438 169.808594 148.921875 169.140625 C 156.273438 165.972656 167.675781 155.191406 173.8125 149.390625 C 174.851562 148.402344 175.785156 147.515625 176.578125 146.785156 C 177.003906 146.398438 177.425781 145.949219 177.875 145.488281 C 180.167969 143.113281 183.625 139.535156 188.558594 140.394531 C 194.398438 141.40625 197.5 146.773438 198.433594 151.457031 C 199.472656 156.5625 197.894531 161.644531 193.15625 168.460938 C 186.265625 178.367188 176.527344 186.785156 164.21875 193.460938 C 163.769531 193.703125 163.269531 193.820312 162.796875 193.820312 " fill-opacity="1" fill-rule="nonzero"/><path fill="#ffffff" d="M 153.265625 187.003906 C 152.023438 187.003906 150.867188 186.246094 150.421875 185.015625 C 149.855469 183.449219 150.664062 181.71875 152.238281 181.152344 C 160.515625 178.148438 180.882812 160.710938 183.984375 152.828125 C 184.585938 151.277344 186.339844 150.519531 187.890625 151.121094 C 189.429688 151.738281 190.195312 153.484375 189.582031 155.035156 C 185.585938 165.226562 163.308594 183.550781 154.289062 186.824219 C 153.945312 186.953125 153.597656 187.003906 153.265625 187.003906 " fill-opacity="1" fill-rule="nonzero"/><path fill="#ffffff" d="M 206.261719 198.039062 C 205.929688 198.039062 205.582031 197.988281 205.261719 197.875 C 202.726562 196.988281 199.074219 195.152344 196.027344 191.484375 C 191.746094 186.335938 191.15625 180.640625 191.171875 177.699219 C 191.183594 176.042969 192.542969 174.699219 194.195312 174.699219 L 194.21875 174.699219 C 195.871094 174.722656 197.21875 176.082031 197.203125 177.75 C 197.191406 179.445312 197.5 183.820312 200.652344 187.621094 C 202.828125 190.238281 205.441406 191.535156 207.246094 192.175781 C 208.824219 192.726562 209.644531 194.449219 209.09375 196.011719 C 208.667969 197.257812 207.503906 198.039062 206.261719 198.039062 " fill-opacity="1" fill-rule="nonzero"/><g clip-path="url(#1114505c48)"><path fill="#ffffff" d="M 192.644531 202.199219 C 191.246094 202.199219 189.992188 201.222656 189.699219 199.8125 C 189.160156 197.308594 187.109375 195.382812 184.703125 195.140625 C 181.933594 194.859375 179.320312 196.730469 178.550781 199.53125 C 178.105469 201.132812 176.425781 202.070312 174.835938 201.621094 C 173.234375 201.171875 172.300781 199.503906 172.75 197.898438 C 174.3125 192.304688 179.742188 188.519531 185.34375 189.132812 C 190.375 189.660156 194.5 193.445312 195.589844 198.542969 C 195.9375 200.183594 194.898438 201.789062 193.273438 202.132812 L 192.644531 202.199219 " fill-opacity="1" fill-rule="nonzero"/></g><g fill="#ffffff" fill-opacity="1"><g transform="translate(90.796508, 263.391516)"><g><path d="M 11.703125 -17.8125 C 10.003906 -17.8125 8.691406 -17.171875 7.765625 -15.890625 C 6.835938 -14.617188 6.375 -12.847656 6.375 -10.578125 C 6.375 -5.828125 8.148438 -3.453125 11.703125 -3.453125 C 13.203125 -3.453125 15.007812 -3.828125 17.125 -4.578125 L 17.125 -0.796875 C 15.382812 -0.0664062 13.4375 0.296875 11.28125 0.296875 C 8.1875 0.296875 5.820312 -0.640625 4.1875 -2.515625 C 2.550781 -4.398438 1.734375 -7.09375 1.734375 -10.59375 C 1.734375 -12.8125 2.132812 -14.75 2.9375 -16.40625 C 3.738281 -18.070312 4.894531 -19.347656 6.40625 -20.234375 C 7.914062 -21.117188 9.679688 -21.5625 11.703125 -21.5625 C 13.765625 -21.5625 15.84375 -21.0625 17.9375 -20.0625 L 16.46875 -16.40625 C 15.675781 -16.78125 14.878906 -17.109375 14.078125 -17.390625 C 13.273438 -17.671875 12.484375 -17.8125 11.703125 -17.8125 Z M 11.703125 -17.8125 "/></g></g></g><g fill="#ffffff" fill-opacity="1"><g transform="translate(111.55797, 263.391516)"><g><path d="M 9.296875 -12.5 L 13.734375 -21.265625 L 18.578125 -21.265625 L 11.53125 -8.28125 L 11.53125 0 L 7.046875 0 L 7.046875 -8.125 L 0 -21.265625 L 4.890625 -21.265625 Z M 9.296875 -12.5 "/></g></g></g><g fill="#ffffff" fill-opacity="1"><g transform="translate(131.926854, 263.391516)"><g><path d="M 2.671875 -21.265625 L 9.296875 -21.265625 C 12.304688 -21.265625 14.492188 -20.832031 15.859375 -19.96875 C 17.222656 -19.113281 17.90625 -17.75 17.90625 -15.875 C 17.90625 -14.601562 17.601562 -13.5625 17 -12.75 C 16.40625 -11.9375 15.613281 -11.445312 14.625 -11.28125 L 14.625 -11.140625 C 15.976562 -10.835938 16.953125 -10.273438 17.546875 -9.453125 C 18.140625 -8.628906 18.4375 -7.535156 18.4375 -6.171875 C 18.4375 -4.222656 17.734375 -2.707031 16.328125 -1.625 C 14.929688 -0.539062 13.03125 0 10.625 0 L 2.671875 0 Z M 7.1875 -12.84375 L 9.796875 -12.84375 C 11.023438 -12.84375 11.910156 -13.03125 12.453125 -13.40625 C 13.003906 -13.78125 13.28125 -14.40625 13.28125 -15.28125 C 13.28125 -16.09375 12.976562 -16.675781 12.375 -17.03125 C 11.78125 -17.382812 10.835938 -17.5625 9.546875 -17.5625 L 7.1875 -17.5625 Z M 7.1875 -9.265625 L 7.1875 -3.71875 L 10.125 -3.71875 C 11.363281 -3.71875 12.273438 -3.953125 12.859375 -4.421875 C 13.453125 -4.898438 13.75 -5.628906 13.75 -6.609375 C 13.75 -8.378906 12.488281 -9.265625 9.96875 -9.265625 Z M 7.1875 -9.265625 "/></g></g></g><g fill="#ffffff" fill-opacity="1"><g transform="translate(153.72063, 263.391516)"><g><path d="M 14.921875 0 L 2.671875 0 L 2.671875 -21.265625 L 14.921875 -21.265625 L 14.921875 -17.5625 L 7.1875 -17.5625 L 7.1875 -12.890625 L 14.375 -12.890625 L 14.375 -9.203125 L 7.1875 -9.203125 L 7.1875 -3.71875 L 14.921875 -3.71875 Z M 14.921875 0 "/></g></g></g><g fill="#ffffff" fill-opacity="1"><g transform="translate(172.184818, 263.391516)"><g><path d="M 7.1875 -11.828125 L 8.640625 -11.828125 C 10.066406 -11.828125 11.117188 -12.0625 11.796875 -12.53125 C 12.472656 -13.007812 12.8125 -13.757812 12.8125 -14.78125 C 12.8125 -15.78125 12.460938 -16.492188 11.765625 -16.921875 C 11.078125 -17.347656 10.003906 -17.5625 8.546875 -17.5625 L 7.1875 -17.5625 Z M 7.1875 -8.15625 L 7.1875 0 L 2.671875 0 L 2.671875 -21.265625 L 8.875 -21.265625 C 11.757812 -21.265625 13.894531 -20.738281 15.28125 -19.6875 C 16.664062 -18.632812 17.359375 -17.035156 17.359375 -14.890625 C 17.359375 -13.640625 17.015625 -12.523438 16.328125 -11.546875 C 15.640625 -10.578125 14.664062 -9.816406 13.40625 -9.265625 C 16.601562 -4.484375 18.6875 -1.394531 19.65625 0 L 14.65625 0 L 9.578125 -8.15625 Z M 7.1875 -8.15625 "/></g></g></g><g fill="#ffffff" fill-opacity="1"><g transform="translate(193.629643, 263.391516)"><g/></g></g><g fill="#ffffff" fill-opacity="1"><g transform="translate(203.151893, 263.391516)"><g><path d="M 10.875 0 L 6.375 0 L 6.375 -17.515625 L 0.59375 -17.515625 L 0.59375 -21.265625 L 16.65625 -21.265625 L 16.65625 -17.515625 L 10.875 -17.515625 Z M 10.875 0 "/></g></g></g><g fill="#ffffff" fill-opacity="1"><g transform="translate(222.183119, 263.391516)"><g><path d="M 14.921875 0 L 2.671875 0 L 2.671875 -21.265625 L 14.921875 -21.265625 L 14.921875 -17.5625 L 7.1875 -17.5625 L 7.1875 -12.890625 L 14.375 -12.890625 L 14.375 -9.203125 L 7.1875 -9.203125 L 7.1875 -3.71875 L 14.921875 -3.71875 Z M 14.921875 0 "/></g></g></g><g fill="#ffffff" fill-opacity="1"><g transform="translate(240.647302, 263.391516)"><g><path d="M 11.703125 -17.8125 C 10.003906 -17.8125 8.691406 -17.171875 7.765625 -15.890625 C 6.835938 -14.617188 6.375 -12.847656 6.375 -10.578125 C 6.375 -5.828125 8.148438 -3.453125 11.703125 -3.453125 C 13.203125 -3.453125 15.007812 -3.828125 17.125 -4.578125 L 17.125 -0.796875 C 15.382812 -0.0664062 13.4375 0.296875 11.28125 0.296875 C 8.1875 0.296875 5.820312 -0.640625 4.1875 -2.515625 C 2.550781 -4.398438 1.734375 -7.09375 1.734375 -10.59375 C 1.734375 -12.8125 2.132812 -14.75 2.9375 -16.40625 C 3.738281 -18.070312 4.894531 -19.347656 6.40625 -20.234375 C 7.914062 -21.117188 9.679688 -21.5625 11.703125 -21.5625 C 13.765625 -21.5625 15.84375 -21.0625 17.9375 -20.0625 L 16.46875 -16.40625 C 15.675781 -16.78125 14.878906 -17.109375 14.078125 -17.390625 C 13.273438 -17.671875 12.484375 -17.8125 11.703125 -17.8125 Z M 11.703125 -17.8125 "/></g></g></g><g fill="#ffffff" fill-opacity="1"><g transform="translate(261.40876, 263.391516)"><g><path d="M 20.09375 0 L 15.609375 0 L 15.609375 -9.171875 L 7.1875 -9.171875 L 7.1875 0 L 2.671875 0 L 2.671875 -21.265625 L 7.1875 -21.265625 L 7.1875 -12.921875 L 15.609375 -12.921875 L 15.609375 -21.265625 L 20.09375 -21.265625 Z M 20.09375 0 "/></g></g></g><g fill="#ffffff" fill-opacity="1"><g transform="translate(94.17437, 295.022472)"><g><path d="M 5.25 -5.828125 L 9.375 -5.828125 L 9.375 -0.453125 C 8.707031 -0.234375 8.078125 -0.0820312 7.484375 0 C 6.890625 0.09375 6.285156 0.140625 5.671875 0.140625 C 4.109375 0.140625 2.910156 -0.316406 2.078125 -1.234375 C 1.253906 -2.160156 0.84375 -3.484375 0.84375 -5.203125 C 0.84375 -6.878906 1.320312 -8.1875 2.28125 -9.125 C 3.238281 -10.0625 4.566406 -10.53125 6.265625 -10.53125 C 7.335938 -10.53125 8.367188 -10.316406 9.359375 -9.890625 L 8.625 -8.140625 C 7.863281 -8.515625 7.070312 -8.703125 6.25 -8.703125 C 5.300781 -8.703125 4.539062 -8.378906 3.96875 -7.734375 C 3.394531 -7.097656 3.109375 -6.238281 3.109375 -5.15625 C 3.109375 -4.03125 3.335938 -3.171875 3.796875 -2.578125 C 4.265625 -1.984375 4.9375 -1.6875 5.8125 -1.6875 C 6.269531 -1.6875 6.738281 -1.734375 7.21875 -1.828125 L 7.21875 -4 L 5.25 -4 Z M 5.25 -5.828125 "/></g></g></g><g fill="#ffffff" fill-opacity="1"><g transform="translate(111.573943, 295.022472)"><g><path d="M 9.765625 -10.390625 L 9.765625 -3.671875 C 9.765625 -2.898438 9.59375 -2.222656 9.25 -1.640625 C 8.90625 -1.066406 8.40625 -0.625 7.75 -0.3125 C 7.101562 -0.0078125 6.335938 0.140625 5.453125 0.140625 C 4.117188 0.140625 3.082031 -0.195312 2.34375 -0.875 C 1.601562 -1.5625 1.234375 -2.5 1.234375 -3.6875 L 1.234375 -10.390625 L 3.4375 -10.390625 L 3.4375 -4.03125 C 3.4375 -3.226562 3.59375 -2.640625 3.90625 -2.265625 C 4.226562 -1.890625 4.765625 -1.703125 5.515625 -1.703125 C 6.234375 -1.703125 6.753906 -1.890625 7.078125 -2.265625 C 7.398438 -2.640625 7.5625 -3.234375 7.5625 -4.046875 L 7.5625 -10.390625 Z M 9.765625 -10.390625 "/></g></g></g><g fill="#ffffff" fill-opacity="1"><g transform="translate(129.435079, 295.022472)"><g><path d="M 7.671875 0 L 6.90625 -2.46875 L 3.125 -2.46875 L 2.375 0 L 0 0 L 3.671875 -10.421875 L 6.359375 -10.421875 L 10.03125 0 Z M 6.390625 -4.3125 C 5.691406 -6.550781 5.296875 -7.816406 5.203125 -8.109375 C 5.117188 -8.410156 5.054688 -8.644531 5.015625 -8.8125 C 4.859375 -8.207031 4.410156 -6.707031 3.671875 -4.3125 Z M 6.390625 -4.3125 "/></g></g></g><g fill="#ffffff" fill-opacity="1"><g transform="translate(146.337578, 295.022472)"><g><path d="M 3.515625 -5.78125 L 4.21875 -5.78125 C 4.914062 -5.78125 5.425781 -5.894531 5.75 -6.125 C 6.082031 -6.351562 6.25 -6.71875 6.25 -7.21875 C 6.25 -7.707031 6.078125 -8.054688 5.734375 -8.265625 C 5.398438 -8.472656 4.878906 -8.578125 4.171875 -8.578125 L 3.515625 -8.578125 Z M 3.515625 -3.984375 L 3.515625 0 L 1.3125 0 L 1.3125 -10.390625 L 4.328125 -10.390625 C 5.742188 -10.390625 6.789062 -10.128906 7.46875 -9.609375 C 8.144531 -9.097656 8.484375 -8.320312 8.484375 -7.28125 C 8.484375 -6.664062 8.3125 -6.117188 7.96875 -5.640625 C 7.632812 -5.160156 7.160156 -4.789062 6.546875 -4.53125 C 8.109375 -2.1875 9.128906 -0.675781 9.609375 0 L 7.15625 0 L 4.6875 -3.984375 Z M 3.515625 -3.984375 "/></g></g></g><g fill="#ffffff" fill-opacity="1"><g transform="translate(162.806907, 295.022472)"><g><path d="M 9.921875 -5.296875 C 9.921875 -3.585938 9.429688 -2.273438 8.453125 -1.359375 C 7.484375 -0.453125 6.082031 0 4.25 0 L 1.3125 0 L 1.3125 -10.390625 L 4.5625 -10.390625 C 6.257812 -10.390625 7.578125 -9.941406 8.515625 -9.046875 C 9.453125 -8.148438 9.921875 -6.898438 9.921875 -5.296875 Z M 7.640625 -5.234375 C 7.640625 -7.460938 6.65625 -8.578125 4.6875 -8.578125 L 3.515625 -8.578125 L 3.515625 -1.8125 L 4.453125 -1.8125 C 6.578125 -1.8125 7.640625 -2.953125 7.640625 -5.234375 Z M 7.640625 -5.234375 "/></g></g></g><g fill="#ffffff" fill-opacity="1"><g transform="translate(180.440809, 295.022472)"><g/></g></g><g fill="#ffffff" fill-opacity="1"><g transform="translate(191.08727, 295.022472)"><g><path d="M 7.4375 -2.890625 C 7.4375 -1.953125 7.097656 -1.210938 6.421875 -0.671875 C 5.742188 -0.128906 4.804688 0.140625 3.609375 0.140625 C 2.503906 0.140625 1.523438 -0.0664062 0.671875 -0.484375 L 0.671875 -2.53125 C 1.367188 -2.21875 1.957031 -1.992188 2.4375 -1.859375 C 2.925781 -1.734375 3.375 -1.671875 3.78125 -1.671875 C 4.257812 -1.671875 4.628906 -1.765625 4.890625 -1.953125 C 5.148438 -2.140625 5.28125 -2.414062 5.28125 -2.78125 C 5.28125 -2.976562 5.222656 -3.15625 5.109375 -3.3125 C 4.992188 -3.476562 4.828125 -3.632812 4.609375 -3.78125 C 4.390625 -3.925781 3.941406 -4.160156 3.265625 -4.484375 C 2.628906 -4.773438 2.148438 -5.054688 1.828125 -5.328125 C 1.515625 -5.609375 1.257812 -5.929688 1.0625 -6.296875 C 0.875 -6.660156 0.78125 -7.085938 0.78125 -7.578125 C 0.78125 -8.492188 1.09375 -9.210938 1.71875 -9.734375 C 2.34375 -10.265625 3.203125 -10.53125 4.296875 -10.53125 C 4.835938 -10.53125 5.351562 -10.46875 5.84375 -10.34375 C 6.332031 -10.21875 6.847656 -10.035156 7.390625 -9.796875 L 6.671875 -8.09375 C 6.117188 -8.320312 5.660156 -8.476562 5.296875 -8.5625 C 4.941406 -8.65625 4.585938 -8.703125 4.234375 -8.703125 C 3.816406 -8.703125 3.492188 -8.601562 3.265625 -8.40625 C 3.046875 -8.21875 2.9375 -7.96875 2.9375 -7.65625 C 2.9375 -7.457031 2.976562 -7.285156 3.0625 -7.140625 C 3.15625 -6.992188 3.300781 -6.851562 3.5 -6.71875 C 3.695312 -6.582031 4.164062 -6.34375 4.90625 -6 C 5.875 -5.53125 6.535156 -5.0625 6.890625 -4.59375 C 7.253906 -4.132812 7.4375 -3.566406 7.4375 -2.890625 Z M 7.4375 -2.890625 "/></g></g></g><g fill="#ffffff" fill-opacity="1"><g transform="translate(205.965961, 295.022472)"><g><path d="M 4.53125 -6.109375 L 6.703125 -10.390625 L 9.078125 -10.390625 L 5.625 -4.046875 L 5.625 0 L 3.4375 0 L 3.4375 -3.96875 L 0 -10.390625 L 2.390625 -10.390625 Z M 4.53125 -6.109375 "/></g></g></g><g fill="#ffffff" fill-opacity="1"><g transform="translate(221.909812, 295.022472)"><g><path d="M 7.4375 -2.890625 C 7.4375 -1.953125 7.097656 -1.210938 6.421875 -0.671875 C 5.742188 -0.128906 4.804688 0.140625 3.609375 0.140625 C 2.503906 0.140625 1.523438 -0.0664062 0.671875 -0.484375 L 0.671875 -2.53125 C 1.367188 -2.21875 1.957031 -1.992188 2.4375 -1.859375 C 2.925781 -1.734375 3.375 -1.671875 3.78125 -1.671875 C 4.257812 -1.671875 4.628906 -1.765625 4.890625 -1.953125 C 5.148438 -2.140625 5.28125 -2.414062 5.28125 -2.78125 C 5.28125 -2.976562 5.222656 -3.15625 5.109375 -3.3125 C 4.992188 -3.476562 4.828125 -3.632812 4.609375 -3.78125 C 4.390625 -3.925781 3.941406 -4.160156 3.265625 -4.484375 C 2.628906 -4.773438 2.148438 -5.054688 1.828125 -5.328125 C 1.515625 -5.609375 1.257812 -5.929688 1.0625 -6.296875 C 0.875 -6.660156 0.78125 -7.085938 0.78125 -7.578125 C 0.78125 -8.492188 1.09375 -9.210938 1.71875 -9.734375 C 2.34375 -10.265625 3.203125 -10.53125 4.296875 -10.53125 C 4.835938 -10.53125 5.351562 -10.46875 5.84375 -10.34375 C 6.332031 -10.21875 6.847656 -10.035156 7.390625 -9.796875 L 6.671875 -8.09375 C 6.117188 -8.320312 5.660156 -8.476562 5.296875 -8.5625 C 4.941406 -8.65625 4.585938 -8.703125 4.234375 -8.703125 C 3.816406 -8.703125 3.492188 -8.601562 3.265625 -8.40625 C 3.046875 -8.21875 2.9375 -7.96875 2.9375 -7.65625 C 2.9375 -7.457031 2.976562 -7.285156 3.0625 -7.140625 C 3.15625 -6.992188 3.300781 -6.851562 3.5 -6.71875 C 3.695312 -6.582031 4.164062 -6.34375 4.90625 -6 C 5.875 -5.53125 6.535156 -5.0625 6.890625 -4.59375 C 7.253906 -4.132812 7.4375 -3.566406 7.4375 -2.890625 Z M 7.4375 -2.890625 "/></g></g></g><g fill="#ffffff" fill-opacity="1"><g transform="translate(236.788504, 295.022472)"><g><path d="M 5.3125 0 L 3.109375 0 L 3.109375 -8.546875 L 0.296875 -8.546875 L 0.296875 -10.390625 L 8.140625 -10.390625 L 8.140625 -8.546875 L 5.3125 -8.546875 Z M 5.3125 0 "/></g></g></g><g fill="#ffffff" fill-opacity="1"><g transform="translate(252.079057, 295.022472)"><g><path d="M 7.28125 0 L 1.3125 0 L 1.3125 -10.390625 L 7.28125 -10.390625 L 7.28125 -8.578125 L 3.515625 -8.578125 L 3.515625 -6.296875 L 7.03125 -6.296875 L 7.03125 -4.5 L 3.515625 -4.5 L 3.515625 -1.8125 L 7.28125 -1.8125 Z M 7.28125 0 "/></g></g></g><g fill="#ffffff" fill-opacity="1"><g transform="translate(267.092674, 295.022472)"><g><path d="M 5.703125 0 L 3.203125 -8.140625 L 3.140625 -8.140625 C 3.234375 -6.484375 3.28125 -5.378906 3.28125 -4.828125 L 3.28125 0 L 1.3125 0 L 1.3125 -10.390625 L 4.296875 -10.390625 L 6.765625 -2.4375 L 6.796875 -2.4375 L 9.40625 -10.390625 L 12.40625 -10.390625 L 12.40625 0 L 10.359375 0 L 10.359375 -4.921875 C 10.359375 -5.148438 10.359375 -5.414062 10.359375 -5.71875 C 10.367188 -6.019531 10.40625 -6.828125 10.46875 -8.140625 L 10.40625 -8.140625 L 7.71875 0 Z M 5.703125 0 "/></g></g></g></svg>